<?xml version="1.0" encoding="UTF-8" standalone="no"?>
<svg width="64px" height="64px" viewBox="0 0 64 64" version="1.1" xmlns="http://www.w3.org/2000/svg" xmlns:xlink="http://www.w3.org/1999/xlink" xmlns:sketch="http://www.bohemiancoding.com/sketch/ns">
    
    <title>Electric Guitar</title>
    <desc>Created with Sketch.</desc>
    <defs></defs>
    <g id="Page-1" stroke="none" stroke-width="1" fill="none" fill-rule="evenodd" sketch:type="MSPage">
        <g id="Electric-Guitar" sketch:type="MSArtboardGroup" fill="#000000">
            <path d="M39.0004,52.9996 L25.0004,52.9996 C23.9004,52.9996 23.0004,53.8996 23.0004,54.9996 C23.0004,56.0996 23.9004,56.9996 25.0004,56.9996 L39.0004,56.9996 C40.1004,56.9996 41.0004,56.0996 41.0004,54.9996 C41.0004,53.8996 40.1004,52.9996 39.0004,52.9996 M39.0004,38.9996 L25.0004,38.9996 C23.9004,38.9996 23.0004,39.8996 23.0004,40.9996 C23.0004,42.0996 23.9004,42.9996 25.0004,42.9996 L39.0004,42.9996 C40.1004,42.9996 41.0004,42.0996 41.0004,40.9996 C41.0004,39.8996 40.1004,38.9996 39.0004,38.9996 M59.1414,45.5846 C59.5354,43.7216 60.1494,41.9236 60.8534,39.9356 C61.0654,39.3356 61.2854,38.7426 61.5054,38.1516 C62.1274,36.4756 62.7714,34.7396 63.2114,32.9116 C64.2884,28.4336 64.2694,24.6476 63.1494,21.3366 C62.7054,20.0396 62.2004,18.6936 61.3394,17.7566 C59.8764,16.1766 57.4164,15.1186 55.4654,16.5436 C53.9414,17.6576 53.5854,19.4126 53.2714,20.9606 C53.1984,21.3166 53.1284,21.6696 53.0424,22.0056 C52.4104,24.4786 51.6084,26.2886 50.5184,27.7036 C49.6544,28.8256 48.3334,29.4896 46.4794,29.7326 C44.2284,30.0266 41.0094,29.5226 39.4534,28.0126 L38.8104,27.5516 L38.0004,-0.0004 L26.0004,-0.0004 L25.4484,18.7726 C23.9044,19.7446 19.5334,19.6946 17.7194,18.9206 C14.3164,17.4706 11.9824,13.7926 11.4714,9.0506 C11.3634,8.2866 11.3324,7.5646 11.3034,6.8646 C11.2084,4.6546 11.1014,2.1496 7.6034,2.0046 C3.6214,1.8506 0.9804,5.9496 0.1704,13.5986 C-0.4356,21.1946 1.6034,27.7026 3.7614,34.5916 C4.0334,35.4596 4.3074,36.3346 4.5784,37.2196 C5.9984,41.8566 6.4424,45.5956 5.9774,48.9876 C5.4404,52.9246 1.8514,59.4016 0.1254,62.5156 C-0.1426,62.9976 0.0324,63.6066 0.5164,63.8746 C0.6694,63.9596 0.8354,63.9996 0.9994,63.9996 C1.3514,63.9996 1.6924,63.8146 1.8754,63.4836 C3.7964,60.0186 7.3714,53.5656 7.9584,49.2586 C8.4654,45.5686 7.9984,41.5576 6.4904,36.6336 C6.2184,35.7446 5.9424,34.8656 5.6694,33.9936 C3.5704,27.2946 1.5894,20.9676 2.1614,13.7826 C2.4794,10.7886 3.6274,3.7996 7.5214,4.0026 C9.0684,4.0666 9.1984,4.4696 9.3044,6.9496 C9.3354,7.6626 9.3694,8.4696 9.4864,9.2976 C10.0724,14.7366 12.8564,19.0226 16.9354,20.7606 C18.7834,21.5486 22.8254,21.8296 25.3834,20.9796 L25.2474,25.6026 C22.2734,24.2446 19.9034,23.5916 18.6804,24.6156 C17.3274,25.7446 17.6094,26.9566 18.1714,29.3716 C18.5694,31.0866 19.1154,33.4356 19.5034,37.0536 C20.2214,43.7536 18.0324,48.3136 16.1024,52.3356 C15.5224,53.5416 14.9774,54.6796 14.5304,55.8286 C14.4594,56.0246 12.7764,60.6726 12.5024,63.4506 C12.4764,63.7256 12.6764,63.9706 12.9514,63.9976 C13.2274,64.0136 13.4714,63.8236 13.4984,63.5486 C13.7594,60.8966 15.4534,56.2176 15.4664,56.1806 C15.8954,55.0776 16.4334,53.9556 17.0034,52.7686 C18.9914,48.6256 21.2454,43.9296 20.4974,36.9456 C20.1044,33.2686 19.5264,30.7876 19.1454,29.1456 C18.5754,26.6956 18.4734,26.0906 19.3204,25.3836 C20.1974,24.6536 22.5084,25.4296 25.2154,26.6956 L25.0004,33.9996 C25.0004,35.0996 25.9004,35.9996 27.0004,35.9996 L37.0004,35.9996 C38.1004,35.9996 39.0004,35.0996 39.0004,33.9996 L38.9844,33.4706 C40.4264,34.0126 41.7754,34.3946 42.9574,34.4976 C50.0964,35.1166 52.8864,32.9876 54.3724,31.3336 C56.2344,29.2596 56.5984,26.8916 56.9194,24.8016 C57.0654,23.8466 57.2044,22.9436 57.4734,22.1626 C57.6634,21.6096 57.8494,21.4816 57.8984,21.4806 C58.0054,21.4656 58.3794,21.8096 58.5384,22.1916 C59.7164,25.0216 59.7124,28.1796 58.5244,31.8456 C57.8934,33.7966 57.0624,35.7956 56.2584,37.7296 C55.0134,40.7266 53.8354,43.5586 53.5054,45.9306 C53.0924,48.8896 53.6734,57.4926 58.0914,63.7866 C58.1884,63.9256 58.3434,63.9996 58.5004,63.9996 C58.6004,63.9996 58.7004,63.9706 58.7874,63.9086 C59.0144,63.7506 59.0684,63.4386 58.9094,63.2126 C54.8964,57.4946 54.0554,49.2256 54.4954,46.0686 C54.8094,43.8226 55.9614,41.0496 57.1824,38.1126 C57.9934,36.1606 58.8324,34.1436 59.4764,32.1536 C60.7394,28.2506 60.7344,24.8656 59.4624,21.8076 C59.2664,21.3386 58.7264,20.4686 57.8674,20.4806 C57.2814,20.4986 56.8304,20.9556 56.5274,21.8376 C56.2294,22.7036 56.0844,23.6486 55.9314,24.6486 C55.6164,26.6956 55.2914,28.8136 53.6284,30.6656 C52.2854,32.1616 49.7334,34.0816 43.0434,33.5016 C41.8534,33.3986 40.4624,32.9906 38.9534,32.3976 L38.8854,30.1056 C41.0224,31.5566 44.2964,32.0336 46.7384,31.7156 C49.1124,31.4036 50.9174,30.4646 52.1034,28.9236 C53.3644,27.2876 54.2784,25.2456 54.9794,22.4996 C55.0734,22.1326 55.1524,21.7476 55.2314,21.3586 C55.4964,20.0506 55.7474,18.8146 56.6454,18.1576 C57.6724,17.4156 59.1364,18.3206 59.8684,19.1126 C60.5164,19.8166 60.9794,21.1736 61.2564,21.9816 C62.2494,24.9206 62.2534,28.3436 61.2664,32.4436 C60.8544,34.1566 60.2604,35.7596 59.6304,37.4566 C59.4064,38.0566 59.1844,38.6576 58.9684,39.2686 C58.2404,41.3236 57.6044,43.1886 57.1844,45.1716 C56.3504,49.1326 56.7844,53.1216 58.5124,57.3646 C59.4184,59.5936 60.8834,61.7406 62.1844,63.5776 C62.5044,64.0276 63.1254,64.1356 63.5784,63.8156 C64.0284,63.4966 64.1364,62.8726 63.8164,62.4216 C62.5224,60.5956 61.1904,58.6426 60.3634,56.6106 C58.7924,52.7486 58.3924,49.1426 59.1414,45.5846 Z" sketch:type="MSShapeGroup"></path>
        </g>
    </g>
</svg>