<?xml version="1.0" encoding="iso-8859-1"?>
<!-- Generator: Adobe Illustrator 19.0.0, SVG Export Plug-In . SVG Version: 6.00 Build 0)  -->
<svg version="1.1" id="Layer_1" xmlns="http://www.w3.org/2000/svg" xmlns:xlink="http://www.w3.org/1999/xlink" x="0px" y="0px"
	 viewBox="0 0 512 512" style="enable-background:new 0 0 512 512;" xml:space="preserve">
<g transform="translate(0 -1)">
	<g>
		<g>
			<path d="M443.313,40.189C398.235,16.019,326.214,1,255.387,1C185.137,1,113.521,15.848,68.55,39.784
				C35.803,57.213,13.617,87.101,4.486,121.021l491.947,98.389c3.605-8.96,6.571-17.003,8.747-23.701
				C524.785,135.357,498.779,69.949,443.313,40.189z"/>
			<path d="M255.347,513h0.021h0.128c60.608,0,128.128-84.139,178.325-168.725L34.525,264.403
				C82.611,364.947,175.133,512.957,255.347,513z"/>
			<path d="M6.154,196.462c1.899,5.824,4.416,12.693,7.403,20.245l442.304,88.448c8.512-15.915,16.213-31.339,23.019-45.76
				L0.33,163.694C1.034,174.638,2.613,185.604,6.154,196.462z"/>
		</g>
	</g>
</g>
<g>
</g>
<g>
</g>
<g>
</g>
<g>
</g>
<g>
</g>
<g>
</g>
<g>
</g>
<g>
</g>
<g>
</g>
<g>
</g>
<g>
</g>
<g>
</g>
<g>
</g>
<g>
</g>
<g>
</g>
</svg>
